<svg width="24" height="24" viewBox="0 0 24 24" fill="none" xmlns="http://www.w3.org/2000/svg">
<g clip-path="url(#clip0_153_5998)">
<path d="M0.929343 16.6255C1.58288 11.2807 4.30702 9.56641 6.74624 8.04739C9.23697 6.49565 11.3913 5.13653 11.1321 0.0300446C9.99597 0.111242 8.87731 0.354813 7.81025 0.753334C7.91863 4.80601 5.99881 6.00791 4.13585 7.1685C2.16827 8.39402 0.309611 9.55192 0.193176 14.1213C0.34878 14.9911 0.596136 15.8308 0.929343 16.6255Z" fill="black"/>
<path d="M3.56815 6.25742C5.30447 5.17517 6.70866 4.28983 6.74032 1.21425C3.57995 2.76331 1.1976 5.66129 0.345001 9.15326C1.22014 7.72117 2.43653 6.96193 3.56815 6.25742ZM3.88526 20.8311C4.30807 15.1349 6.80739 13.1469 9.23105 11.2223C11.864 9.13179 14.352 7.1508 14.212 0.201212C13.5492 0.0779433 12.8772 0.0106355 12.2031 0C12.481 5.72032 9.8599 7.37186 7.31337 8.95795C4.73356 10.565 2.07113 12.2331 1.86616 18.4128C2.43076 19.3035 3.10956 20.1165 3.88526 20.8311ZM16.7365 14.5683C19.1414 12.6382 21.41 10.801 21.2887 4.39661C20.6404 3.60746 19.8947 2.90361 19.0695 2.30186C19.0357 9.29867 16.3159 11.4857 13.6797 13.6008C11.1986 15.592 8.85653 17.4759 8.68483 23.5353C9.67425 23.8197 10.7147 23.9812 11.7899 24.0005C12.0727 18.3274 14.4395 16.4124 16.7365 14.5683ZM20.7672 17.0713C19.0448 18.1209 17.551 19.0411 17.3772 22.7316C20.6797 21.072 23.1141 17.9341 23.8074 14.1895C23.0336 15.6886 21.8602 16.4055 20.7672 17.0713Z" fill="black"/>
<path d="M20.2092 16.1554C22.0539 15.0308 23.7972 13.9695 23.5847 9.03467L23.64 9.03253C23.359 7.93358 22.9225 6.88039 22.3436 5.90489C22.0898 11.63 19.7172 13.5531 17.4094 15.4053C15.2132 17.1663 13.1416 18.8441 12.8674 23.9705C14.038 23.8877 15.1901 23.6327 16.2864 23.2139C16.3518 18.5061 18.4004 17.2575 20.2092 16.1554ZM13.009 12.7638C15.6462 10.6481 18.138 8.64405 17.9921 1.60003C17.1424 1.10891 16.2353 0.724341 15.2916 0.455002C15.3683 7.72009 12.5889 9.92644 9.89856 12.0625C7.4486 14.0076 5.13654 15.8555 4.91602 21.6788C5.75224 22.2931 6.6647 22.7961 7.6305 23.1753C7.89556 16.8841 10.4915 14.784 13.009 12.7638Z" fill="black"/>
</g>
<defs>
<clipPath id="clip0_153_5998">
<rect width="24" height="24" fill="white"/>
</clipPath>
</defs>
</svg>
