<svg width="24" height="24" viewBox="0 0 24 24" fill="none" xmlns="http://www.w3.org/2000/svg">
<path d="M12.9109 23.7932C12.6352 24.0689 12.1883 24.0689 11.9126 23.7932L5.20675 17.0874C4.93108 16.8117 4.93108 16.3648 5.20675 16.0891L11.9126 9.38325C12.1883 9.10758 12.6352 9.10758 12.9109 9.38325L19.6168 16.0891C19.8925 16.3648 19.8925 16.8118 19.6168 17.0874L12.9109 23.7932ZM12.9109 7.55794C12.6352 7.83361 12.1883 7.83361 11.9126 7.55794L8.73616 4.38146C8.46049 4.10579 8.46049 3.65883 8.73616 3.38321L11.9126 0.206723C12.1883 -0.0689485 12.6352 -0.0689485 12.9109 0.206723L16.0874 3.38321C16.3631 3.65888 16.3631 4.10583 16.0874 4.38146L12.9109 7.55794Z" fill="white"/>
</svg>
