<svg width="24" height="24" viewBox="0 0 24 24" fill="none" xmlns="http://www.w3.org/2000/svg">
<g clip-path="url(#clip0_203_9842)">
<path fill-rule="evenodd" clip-rule="evenodd" d="M12 0C18.6274 -2.89693e-07 24 5.37258 24 12C24 18.6274 18.6274 24 12 24C5.37258 24 2.89693e-07 18.6274 0 12C-2.89694e-07 5.37258 5.37258 2.89693e-07 12 0ZM12 0C16.573 -1.99889e-07 20.28 3.70708 20.28 8.28C20.28 12.853 16.573 16.56 12 16.56C7.42709 16.56 3.72 12.853 3.72 8.28C3.72 3.70708 7.42709 1.99889e-07 12 0ZM15.84 8.28C15.84 6.15923 14.1208 4.44 12 4.44C9.87923 4.44 8.16 6.15923 8.16 8.28C8.16 10.4008 9.87923 12.12 12 12.12C14.1208 12.12 15.84 10.4008 15.84 8.28Z" fill="black"/>
</g>
<defs>
<clipPath id="clip0_203_9842">
<rect width="24" height="24" fill="white"/>
</clipPath>
</defs>
</svg>
